<?xml version="1.0" encoding="UTF-8" standalone="no"?>
<svg
   id="wordmark"
   data-name="workdmark"
   viewBox="0 0 170 27.999999"
   version="1.1"
   width="170"
   height="28"
   sodipodi:docname="tractstack-dark.svg"
   inkscape:version="1.2.2 (b0a8486541, 2022-12-01)"
   xmlns:inkscape="http://www.inkscape.org/namespaces/inkscape"
   xmlns:sodipodi="http://sodipodi.sourceforge.net/DTD/sodipodi-0.dtd"
   xmlns="http://www.w3.org/2000/svg"
   xmlns:svg="http://www.w3.org/2000/svg">
  <sodipodi:namedview
     id="namedview216"
     pagecolor="#ffffff"
     bordercolor="#000000"
     borderopacity="0.25"
     inkscape:showpageshadow="2"
     inkscape:pageopacity="0.0"
     inkscape:pagecheckerboard="0"
     inkscape:deskcolor="#d1d1d1"
     showgrid="false"
     inkscape:zoom="7.449875"
     inkscape:cx="79.598651"
     inkscape:cy="10.604205"
     inkscape:window-width="2240"
     inkscape:window-height="1331"
     inkscape:window-x="0"
     inkscape:window-y="32"
     inkscape:window-maximized="1"
     inkscape:current-layer="wordmark" />
  <defs
     id="defs98" />
  <path
     d="m 162.90631,22.837332 c -2.45982,0.51968 -3.88028,-0.476374 -4.64247,-2.814934 -0.45905,-1.403136 -1.30787,-2.685013 -2.05274,-4.15744 -1.01338,1.134635 -1.97478,2.13935 -2.83226,3.230678 -0.23385,0.294485 -0.19055,0.831488 -0.20787,1.255893 -0.026,0.77952 0,1.55904 0,2.416512 H 150.2521 V 4.7871126 h 2.91021 V 15.787006 c 0.25984,-0.216533 0.36378,-0.285824 0.44173,-0.381098 1.70628,-1.844864 3.39524,-3.689728 5.11885,-5.5172701 0.23385,-0.2511787 0.58897,-0.5283413 0.90944,-0.5543253 0.87479,-0.077952 1.76691,-0.025984 2.88422,-0.025984 -1.2992,1.4117974 -2.4425,2.6243844 -3.53382,3.8889394 -0.21654,0.251177 -0.41575,0.77952 -0.29449,1.030698 1.37715,2.823595 2.8236,5.612544 4.24405,8.410155 v 0.207872 z"
     id="path75"
     style="stroke-width:0.866133;fill:#c8df8c;fill-opacity:1" />
  <path
     d="m 68.315886,22.794025 h -2.529109 c -0.164565,-0.805504 -0.320469,-1.585024 -0.502357,-2.485803 -0.147243,0.199211 -0.251179,0.32047 -0.337792,0.45039 -1.35983,2.035413 -3.620438,2.788949 -5.967659,1.957461 -1.636992,-0.571648 -2.53777,-1.758251 -2.66769,-3.438549 -0.12992,-1.68896 0.606293,-2.996822 2.122026,-3.793664 1.68896,-0.892118 3.551147,-1.03936 5.430656,-1.108651 0.502357,-0.01732 1.307861,0.398421 1.463765,-0.450389 0.164566,-0.857472 0,-1.714944 -0.84881,-2.260608 -1.593686,-1.004715 -4.070827,-0.424406 -5.075542,1.160618 -0.121258,0.19055 -0.467712,0.363776 -0.701568,0.346454 -0.614954,-0.02598 -1.221247,-0.164566 -1.827541,-0.251179 0.06929,-1.602347 1.108651,-2.823595 2.970837,-3.4039044 1.81888,-0.571648 3.689728,-0.571648 5.534592,-0.1212587 1.922816,0.4763733 2.797611,1.5417171 2.901547,3.5944541 0.08661,1.801557 0.04331,3.620437 0.05197,5.430656 0,1.420458 0,2.849578 0,4.35665 z m -3.083434,-6.764501 c -1.316523,-0.242518 -3.629099,0.147242 -4.685782,0.788181 -0.961408,0.588971 -1.385813,1.533056 -1.117312,2.520448 0.233856,0.857472 1.030699,1.394475 2.148011,1.437781 2.641707,0.103936 4.218069,-1.9488 3.655083,-4.755072 z"
     id="path77"
     style="stroke-width:0.866133;fill:#c8df8c;fill-opacity:1" />
  <path
     d="m 122.05946,12.920105 c 0.23386,-1.905494 1.45511,-2.85824 3.03147,-3.3779204 1.91415,-0.6322774 3.88894,-0.6062934 5.82908,-0.051968 1.49841,0.4330666 2.4858,1.3944744 2.55509,2.9881604 0.0953,2.044075 0.0866,4.096811 0.1126,6.140885 0.0173,1.351168 0,2.710998 0,4.140118 h -2.52911 c -0.15591,-0.762198 -0.32047,-1.541718 -0.50236,-2.442496 -0.13858,0.173226 -0.25118,0.285824 -0.32047,0.415744 -1.38581,2.494464 -4.41728,2.676352 -6.34876,1.836202 -1.46376,-0.640938 -2.22596,-1.827541 -2.31257,-3.37792 -0.0866,-1.550378 0.55432,-2.79761 1.93148,-3.594453 1.73226,-0.996053 3.65508,-1.143296 5.60388,-1.221248 0.51102,-0.01732 1.37715,-0.181888 1.44644,-0.441728 0.2252,-0.831488 0.0606,-1.706283 -0.78818,-2.251947 -1.57636,-1.022037 -4.11413,-0.433067 -5.0842,1.134635 -0.12126,0.199211 -0.45905,0.381099 -0.69291,0.372437 -0.61495,-0.02598 -1.22125,-0.155904 -1.93148,-0.25984 z m 8.45346,2.970837 c -1.66297,0.08661 -3.2913,0.103936 -4.73775,0.961408 -0.93542,0.554326 -1.31652,1.481088 -1.08266,2.442496 0.20787,0.866134 1.01337,1.42912 2.11336,1.481088 2.64171,0.12992 4.17477,-1.810218 3.70705,-4.893653 z"
     id="path79"
     style="stroke-width:0.866133;fill:#c8df8c;fill-opacity:1" />
  <path
     d="m 110.358,12.166569 c -0.87479,0.190549 -1.70628,0.372437 -2.58974,0.562987 -0.8055,-1.602347 -2.19998,-1.680299 -3.71572,-1.368491 -0.70157,0.138581 -1.35117,0.433067 -1.4118,1.273216 -0.0606,0.857472 0.55433,1.221248 1.2559,1.394475 1.23858,0.303146 2.49447,0.545664 3.75036,0.805504 2.18266,0.450389 3.25667,1.55904 3.41257,3.533824 0.14724,1.870848 -0.84015,3.395242 -2.78029,4.09681 -2.30391,0.84015 -4.6165,0.805504 -6.85978,-0.242517 -1.21259,-0.562987 -1.697619,-1.177941 -2.078719,-2.494464 0.814159,-0.155904 1.610999,-0.346453 2.425169,-0.441728 0.19055,-0.02598 0.45905,0.207872 0.61495,0.38976 1.01338,1.203925 3.76769,1.585024 5.02359,0.606293 0.32913,-0.25984 0.6496,-0.822826 0.58897,-1.186602 -0.0693,-0.415744 -0.4937,-0.952747 -0.89212,-1.091328 -0.93542,-0.329131 -1.94014,-0.459051 -2.91888,-0.675584 -0.46771,-0.103936 -0.95274,-0.181888 -1.4118,-0.329131 -2.00942,-0.623616 -2.944849,-1.775573 -2.953509,-3.594454 0,-1.88817 1.117309,-3.395242 3.005479,-3.9582291 1.67164,-0.493696 3.36061,-0.4503893 5.00626,0.1125973 1.23857,0.415744 2.13069,1.2299098 2.5551,2.6157228 z"
     id="path81"
     style="stroke-width:0.866133;fill:#c8df8c;fill-opacity:1" />
  <path
     d="m 80.060651,17.89171 c 0.84015,0.09528 1.61967,0.173227 2.51179,0.277163 -0.32047,1.992107 -1.21259,3.568469 -3.11808,4.356651 -2.139349,0.874794 -4.235392,0.701568 -6.019627,-0.848811 -2.92753,-2.546432 -2.918869,-8.566059 0.0087,-11.121152 1.792896,-1.5590404 3.8976,-1.8535258 6.106237,-1.0306991 1.85353,0.6929071 2.76297,2.1566721 3.04013,4.1661021 -0.85747,0.121258 -1.65431,0.242517 -2.51179,0.372437 -0.0606,-0.199211 -0.10393,-0.355115 -0.1559,-0.502357 -0.41574,-1.307862 -1.074005,-1.905494 -2.199979,-1.983446 -1.186602,-0.08661 -2.182656,0.511019 -2.685013,1.697622 -0.710229,1.662976 -0.718891,3.395242 -0.225195,5.118848 0.372438,1.307861 1.264555,2.000768 2.416512,2.035413 1.212587,0.03465 1.992105,-0.528341 2.555095,-1.853525 0.078,-0.19055 0.1559,-0.381099 0.27716,-0.675584 z"
     id="path83"
     style="stroke-width:0.866133;fill:#c8df8c;fill-opacity:1" />
  <path
     d="m 147.81827,18.168873 c -0.44173,2.814933 -2.08738,4.443264 -4.79838,4.815701 -2.47714,0.337792 -4.82436,-0.970069 -5.80309,-3.37792 -1.03936,-2.563754 -1.01338,-5.153493 0.34645,-7.60465 1.4551,-2.6243848 4.80704,-3.6377608 7.54402,-2.3385608 1.67164,0.7881818 2.51179,2.1566728 2.73698,4.0448428 -0.84015,0.121259 -1.64565,0.233856 -2.45116,0.355115 -0.0779,-0.12992 -0.13858,-0.216533 -0.16456,-0.303147 -0.45039,-1.524394 -1.11731,-2.14801 -2.35588,-2.182656 -1.23857,-0.04331 -2.37321,0.623616 -2.65037,2.000768 -0.29449,1.472427 -0.36378,3.040128 -0.19055,4.521216 0.18189,1.507072 1.16062,2.251947 2.35588,2.321238 1.31652,0.07795 2.11337,-0.511019 2.73698,-2.044075 0.052,-0.12992 0.10394,-0.251179 0.19055,-0.467712 0.3811,0.03465 0.78818,0.07795 1.18661,0.121259 0.40708,0.04331 0.82282,0.08661 1.30786,0.138581 z"
     id="path85"
     style="stroke-width:0.866133;fill:#c8df8c;fill-opacity:1" />
  <path
     d="m 42.557081,11.577598 c 0,2.555094 -0.01732,4.902315 0.0087,7.258198 0.0087,0.961408 0.562986,1.49841 1.567701,1.550378 0.407083,0.02598 0.822827,0.05197 1.2992,0.07795 V 22.7767 c -1.463765,0.45039 -2.892885,0.346454 -4.270037,-0.355114 -1.056683,-0.537003 -1.507072,-1.481088 -1.533056,-2.607062 -0.03465,-2.182656 -0.03465,-4.373973 -0.04331,-6.556629 0,-1.585024 0,-1.585024 -1.611008,-1.732267 V 9.3516352 c 0.545664,-0.034645 1.117312,-0.069291 1.758251,-0.103936 0.112597,-1.1346346 0.216533,-2.2432853 0.32913,-3.4039039 0.822827,-0.086613 1.593686,-0.1645654 2.451158,-0.2511787 v 3.6550826 h 2.676352 v 2.3212378 h -2.641707 z"
     id="path87"
     style="stroke-width:0.866133;fill:#c8df8c;fill-opacity:1" />
  <path
     d="m 91.164481,9.2736832 v 2.3212378 h -2.65037 c 0,2.572416 -0.0346,5.023573 0.0173,7.474731 0.0173,0.762197 0.55432,1.229909 1.35117,1.307861 0.47637,0.04331 0.95275,0.06929 1.48975,0.112597 v 2.295254 c -1.22991,0.424405 -2.45116,0.346453 -3.64642,-0.05197 -1.40314,-0.467712 -2.13935,-1.472427 -2.16534,-2.927531 -0.0346,-2.148011 -0.0346,-4.304683 -0.0433,-6.452694 q 0,-1.636991 -1.64565,-1.827541 c -0.0173,-0.346453 -0.0433,-0.710229 -0.052,-1.065344 0,-0.337792 0,-0.6755841 0,-1.0740054 0.6496,-0.043307 1.22125,-0.086613 1.84486,-0.12992 0.10394,-1.117312 0.20788,-2.1999787 0.32047,-3.3865813 0.77086,-0.086613 1.54172,-0.181888 2.43384,-0.285824 v 3.6983893 h 2.72832 z"
     id="path89"
     style="stroke-width:0.866133;fill:#c8df8c;fill-opacity:1" />
  <path
     d="M 112.16822,11.52563 V 9.3516352 c 0.59763,-0.025984 1.13463,-0.060629 1.77557,-0.086613 0.1126,-1.117312 0.21654,-2.2173013 0.3378,-3.403904 0.79684,-0.086613 1.57636,-0.1732266 2.45981,-0.2685013 v 3.715712 h 2.69368 v 2.2519471 h -2.67635 c 0,1.307861 0,2.485802 0,3.663744 0,1.022037 0,2.052736 0,3.074773 0.0173,1.636992 0.4244,2.052736 2.07006,2.130688 0.24251,0.0087 0.47637,0 0.8055,0 v 2.269269 c -2.91887,1.325184 -5.75113,-0.372437 -5.81176,-3.551146 -0.0433,-2.113366 -0.0606,-4.235392 0,-6.348758 0.026,-0.926762 -0.22519,-1.342506 -1.20392,-1.195264 -0.12126,0.01732 -0.25984,-0.03465 -0.45039,-0.06929 z"
     id="path91"
     style="stroke-width:0.866133;fill:#c8df8c;fill-opacity:1" />
  <path
     d="m 48.039705,9.2996672 c 0.692907,0 1.307862,0 1.922816,0 0.199211,0 0.407083,0.017323 0.692907,0.034645 v 2.7889498 c 0.640939,-0.883456 1.03936,-1.688961 1.671637,-2.2259632 0.640939,-0.5370026 1.515734,-0.7881813 2.459819,-1.2558933 v 3.4472115 c -2.503125,0.38976 -3.594453,1.515733 -3.733035,4.018859 -0.103936,1.836202 -0.05197,3.681066 -0.06063,5.52593 0,0.363776 0,0.736214 0,1.143296 H 48.031044 V 9.2996672 Z"
     id="path93"
     style="stroke-width:0.866133;fill:#c8df8c;fill-opacity:1" />
  <path
     class="outline"
     d="m 13.252679,16.127394 c 0,-0.929514 0,-1.860942 0,-2.792368 0.839624,-0.833887 1.679247,-1.667772 2.516958,-2.501657 1.648646,-1.6448215 3.297293,-3.2896423 4.942112,-4.9382876 0.11858,-0.1185799 0.235249,-0.1644823 0.39973,-0.1625691 0.70383,0.00767 1.40766,0.019122 2.109578,-0.00384 0.284975,-0.00959 0.481971,0.080333 0.678966,0.2792369 1.170499,1.1819753 2.352475,2.3563007 3.530626,3.5306261 1.269954,1.2661297 2.543733,2.5303467 3.815601,3.7964757 v 2.792369 c -0.374866,0.371041 -0.749732,0.74017 -1.122687,1.11121 -2.166954,2.16313 -4.331997,4.326262 -6.49704,6.489391 h -2.754117 c -0.0134,-0.01721 -0.02486,-0.03826 -0.04016,-0.05356 -1.357937,-1.354102 -2.713958,-2.708209 -4.071891,-4.060404 -1.168588,-1.160937 -2.339088,-2.323788 -3.507676,-3.486637 z m 13.604195,-1.386622 c -0.05164,-0.06503 -0.09181,-0.130056 -0.143443,-0.181695 -1.426786,-1.426785 -2.855485,-2.849746 -4.280358,-4.276533 -0.124318,-0.124317 -0.218035,-0.130055 -0.344265,-0.0038 -1.424874,1.426787 -2.853572,2.851661 -4.284183,4.274621 -0.120494,0.120493 -0.135794,0.219947 -0.0096,0.348091 1.434436,1.428698 2.868872,2.859309 4.299483,4.291834 0.12623,0.126229 0.221861,0.122403 0.346178,-0.002 1.424874,-1.426786 2.855484,-2.85166 4.28227,-4.276534 0.04781,-0.04781 0.08224,-0.107105 0.13388,-0.172131 z M 22.806026,6.26421 c -0.51066,0 -0.975417,0.00575 -1.440174,-0.00384 -0.181695,-0.00384 -0.315576,0.051645 -0.445632,0.1816955 -2.285535,2.2855352 -4.572983,4.5691585 -6.866168,6.8470425 -0.154919,0.15492 -0.160657,0.246724 -0.0019,0.401643 0.910387,0.895089 1.809302,1.799739 2.71204,2.700564 1.346457,1.344546 2.694828,2.685267 4.037461,4.033637 0.156831,0.156831 0.262023,0.164483 0.409292,0 0.172132,-0.193171 0.361478,-0.372953 0.550824,-0.552736 0.116668,-0.110931 0.128143,-0.195083 0.002,-0.321315 -1.971871,-1.96039 -3.939919,-3.924612 -5.909879,-5.890747 -0.0612,-0.0612 -0.120492,-0.128142 -0.231422,-0.244809 2.392591,-2.379253 4.766105,-4.7432034 7.183608,-7.1511442 z m 7.95634,9.063725 c 0,-0.388254 -0.02294,-0.721043 0.0057,-1.050008 0.0421,-0.499183 -0.137682,-0.860661 -0.49916,-1.218314 -2.184146,-2.147829 -4.34345,-4.3186092 -6.510405,-6.4817402 -0.227597,-0.2275968 -0.23716,-0.2275968 -0.472408,0.00575 -1.7634,1.7595754 -3.524888,3.5172382 -5.286376,5.2768142 -0.481971,0.480058 -0.958204,0.963942 -1.445913,1.438261 -0.133881,0.130056 -0.147268,0.229511 -0.0057,0.359566 0.174045,0.160657 0.336614,0.332789 0.504923,0.499184 q 0.233334,0.231421 0.466669,0 c 1.929794,-1.92597 3.859589,-3.851941 5.789385,-5.7779104 0.06885,-0.066943 0.139618,-0.1319676 0.246723,-0.2333346 2.394552,2.384989 4.769979,4.750853 7.208521,7.17792 z m -16.953125,-1.19345 c -0.01721,0.114754 -0.03634,0.185519 -0.03634,0.254372 -0.0038,0.403555 0.0077,0.809023 -0.0057,1.212577 -0.0057,0.20656 0.0612,0.355741 0.208471,0.503009 2.264496,2.253022 4.523256,4.509868 6.783928,6.764803 0.246723,0.246723 0.252462,0.246723 0.506834,-0.0057 1.195364,-1.191537 2.390728,-2.38499 3.586092,-3.57844 1.032793,-1.030881 2.063674,-2.063677 3.100295,-3.090733 0.154919,-0.153006 0.168307,-0.265849 0,-0.413117 -0.166394,-0.145356 -0.315576,-0.309839 -0.472408,-0.46667 q -0.229509,-0.22951 -0.460932,0 c -1.94127,1.937444 -3.882541,3.874891 -5.823813,5.812335 -0.09945,0.09946 -0.168306,0.198909 -0.325137,0.04015 -2.281713,-2.289381 -4.56916,-4.571092 -6.856609,-6.854714 -0.05164,-0.05165 -0.11093,-0.09754 -0.204646,-0.179783 z m 7.879837,9.042687 c 0.110931,0.01147 0.183608,0.02486 0.254374,0.02678 0.382517,0.0057 0.765033,-0.002 1.145636,0.0153 0.216122,0.0096 0.371041,-0.0593 0.524048,-0.212297 2.266408,-2.270234 4.538557,-4.534732 6.808791,-6.80114 q 0.235248,-0.235248 0.0057,-0.466671 c -1.811164,-1.807391 -3.622378,-3.61478 -5.433593,-5.422171 -0.437981,-0.4360689 -0.877875,-0.8721373 -1.312031,-1.312031 -0.11858,-0.1204933 -0.206559,-0.1262309 -0.321314,0 -0.193171,0.2046461 -0.393992,0.4054667 -0.600551,0.5986375 -0.124317,0.1166676 -0.114756,0.2046466 0.0038,0.3232276 1.960397,1.9489199 3.91888,3.9016669 5.877364,5.8544129 0.06885,0.06885 0.131968,0.14153 0.227597,0.244809 -2.39264,2.38499 -4.769979,4.754679 -7.181745,7.154969 z"
     id="path256"
     style="fill:#393d34;stroke-width:0.191258" />
  <path
     class="face"
     d="m 22.806026,6.26421 c -2.417503,2.4079407 -4.789105,4.771892 -7.181746,7.154969 0.11093,0.118581 0.170221,0.183608 0.231423,0.24481 1.968047,1.964221 3.936095,3.928442 5.909878,5.890752 0.126231,0.12623 0.112843,0.210384 -0.0019,0.321314 -0.187432,0.179782 -0.376778,0.357652 -0.550824,0.552736 -0.147267,0.166395 -0.254372,0.158744 -0.409291,0 -1.340773,-1.34837 -2.691055,-2.691003 -4.037514,-4.033636 -0.902739,-0.900825 -1.803565,-1.805475 -2.712041,-2.700564 -0.158745,-0.156831 -0.153007,-0.248637 0.002,-0.401643 2.291273,-2.281709 4.578721,-4.5653328 6.862345,-6.8508681 0.130055,-0.1300554 0.263935,-0.1836077 0.445631,-0.1816954 0.464757,0.00959 0.929515,0.00384 1.440174,0.00384 z"
     id="path258"
     style="opacity:0.5;fill:#c8df8c;stroke-width:0.191258" />
  <path
     class="face"
     d="m 30.760454,15.327935 c -2.438543,-2.427066 -4.813968,-4.794842 -7.208521,-7.1779199 -0.107105,0.101367 -0.17787,0.1644824 -0.246723,0.2333356 -1.929794,1.9259703 -3.85959,3.8519403 -5.789386,5.7779103 q -0.233335,0.231422 -0.46667,0 c -0.168308,-0.166394 -0.330876,-0.34044 -0.504921,-0.499184 -0.141531,-0.130056 -0.128143,-0.22951 0.0057,-0.359565 0.485796,-0.474321 0.96394,-0.958204 1.445911,-1.438262 1.761488,-1.759576 3.524889,-3.5172386 5.286377,-5.276814 0.233335,-0.2333345 0.24481,-0.2333345 0.472407,-0.00575 2.166955,2.16313 4.32626,4.333911 6.51043,6.481741 0.361477,0.355739 0.54126,0.71913 0.499183,1.218314 -0.02678,0.328963 -0.0057,0.659841 -0.0057,1.050008 z"
     id="path260"
     style="opacity:0.5;fill:#c8df8c;stroke-width:0.191258" />
  <path
     class="face"
     d="m 13.809241,14.134485 c 0.09371,0.08224 0.153005,0.128143 0.204645,0.179782 2.287449,2.283623 4.574897,4.565333 6.856608,6.854693 0.158743,0.158744 0.225685,0.05929 0.325138,-0.04015 1.94127,-1.937445 3.882542,-3.874891 5.823813,-5.812336 q 0.231422,-0.22951 0.460932,0 c 0.156831,0.156831 0.306013,0.321314 0.472408,0.46667 0.168306,0.147269 0.154918,0.258199 0,0.413117 -1.038533,1.025144 -2.067502,2.059851 -3.100296,3.090734 -1.195364,1.193449 -2.390728,2.384989 -3.586091,3.57844 -0.252461,0.25246 -0.258199,0.25246 -0.506834,0.0057 -2.260672,-2.254911 -4.519432,-4.51367 -6.783928,-6.76478 -0.14727,-0.147268 -0.21421,-0.29645 -0.208472,-0.503009 0.01339,-0.403554 0.0019,-0.807109 0.0057,-1.212576 0,-0.06885 0.01912,-0.139619 0.03634,-0.254373 z"
     id="path262"
     style="opacity:0.5;fill:#c8df8c;stroke-width:0.191258" />
  <path
     class="face"
     d="m 21.689078,23.177172 c 2.409853,-2.402204 4.787192,-4.76998 7.181745,-7.154969 -0.09563,-0.10328 -0.158745,-0.175958 -0.227598,-0.244811 -1.958484,-1.952746 -3.915054,-3.90358 -5.877363,-5.8544129 -0.11858,-0.11858 -0.128143,-0.206559 -0.0038,-0.3232261 0.204645,-0.1931708 0.405467,-0.3939924 0.60055,-0.5986385 0.116668,-0.1243177 0.204646,-0.11858 0.321314,0 0.434156,0.441806 0.87405,0.8759626 1.312032,1.3120315 1.811214,1.80739 3.62243,3.61478 5.433644,5.422169 q 0.231422,0.229511 -0.0057,0.46667 c -2.270234,2.266409 -4.54238,4.530906 -6.808791,6.801141 -0.153006,0.153007 -0.307925,0.22186 -0.524048,0.212296 -0.382516,-0.01721 -0.765032,-0.0096 -1.145635,-0.0153 -0.07077,0 -0.143445,-0.0153 -0.254374,-0.02677 z"
     id="path264"
     style="opacity:0.5;fill:#c8df8c;stroke-width:0.191258" />
</svg>
